<svg id="bcd88db3-049e-44b0-bb73-0164fc4e2921" data-name="Layer 1" xmlns="http://www.w3.org/2000/svg" width="752.2" height="238.1" viewBox="0 0 752.2 238.1"><title>Restaurantr</title><path d="M414.8,156.1l-6.4,2.2a1.53,1.53,0,0,1-1.9-.9l-14.9-44.3,9.3-3.1,14.9,44.3A1.52,1.52,0,0,1,414.8,156.1Z" transform="translate(-17.4 -8.5)" fill="#b2b2b2"/><path d="M449.7,144.4l-6.4,2.2a1.53,1.53,0,0,1-1.9-.9l-14.9-44.3,9.3-3.1,14.9,44.3A1.62,1.62,0,0,1,449.7,144.4Z" transform="translate(-17.4 -8.5)" fill="#b2b2b2"/><path d="M432.5,150.4l-6.4,2.2a1.53,1.53,0,0,1-1.9-.9l-14.9-44.3,9.3-3.1,14.9,44.3A1.62,1.62,0,0,1,432.5,150.4Z" transform="translate(-17.4 -8.5)" fill="#b2b2b2"/><path d="M429.7,172l14.7,43.9a2.2,2.2,0,0,1-1.4,2.8l-7.7,2.6a2.2,2.2,0,0,1-2.8-1.4l-11.6-34.5a2.43,2.43,0,0,0-1.9-1.5,29.19,29.19,0,0,1-3.1-.4c-7.2-1.3-14.6-3.4-19.6-8.3s-9.6-13.5-13.6-25.5l-12.2-36.4a4.59,4.59,0,0,1,2.9-5.8l3.7-1.2a4.44,4.44,0,0,1,5.6,2.8l11.9,35.3c3.2,9.6,6,16.1,8.4,19.3,3.5,4.6,9.4,6.6,15.2,8a30.94,30.94,0,0,0,11.4.4A.1.1,0,0,1,429.7,172Z" transform="translate(-17.4 -8.5)" fill="#fff"/><path d="M439.8,168.7l14.9,43.9a2.26,2.26,0,0,0,2.7,1.4l6.7-2.1a2.17,2.17,0,0,0,1.4-2.7l-10.8-34.8a2,2,0,0,1,.7-2.3,23.89,23.89,0,0,0,2.3-2.2c5.1-5.2,9.9-11.3,11.1-18.2s-.1-16.5-3.9-28.6L453.5,86.5a4.5,4.5,0,0,0-5.7-3l-3.7,1.2a4.43,4.43,0,0,0-2.9,5.5l11,35.6c3,9.7,4.5,16.6,4.5,20.6-.1,5.8-3.7,10.8-7.7,15.4a31.14,31.14,0,0,1-9,7C439.9,168.6,439.8,168.7,439.8,168.7Z" transform="translate(-17.4 -8.5)" fill="#fff"/><path d="M551.9,246.5h0a.31.31,0,0,1-.2.1Z" transform="translate(-17.4 -8.5)" fill="#fff"/><path d="M71.8,179.9c4.4-.7,9.3-2.8,14.8-6.4a31,31,0,0,0,11.9-13.8,33,33,0,0,0,1.9-18.6c-1.3-8.1-4.7-14.6-10.2-19.4a32.49,32.49,0,0,0-19.8-8c-5.1-.3-14.5.6-28.3,2.8l-24.7,3.9L37.2,244.7l12.4-2-9.2-57.8,16.2-2.6,44.8,52.2,15.3-2.4Zm-33.4-7.1-6.7-42.3L53.6,127c8.6-1.4,14.8-1.6,18.6-.7a19.42,19.42,0,0,1,10,5.9A19.94,19.94,0,0,1,87.4,143a21.07,21.07,0,0,1-1.5,12.2,19.59,19.59,0,0,1-8.1,9c-3.7,2.2-9.7,4-18,5.3Z" transform="translate(-17.4 -8.5)" fill="#fff"/><path d="M180.4,169.8q-1.05,9.6-3.3,14.7a32.32,32.32,0,0,1-6.8,9.7,33.89,33.89,0,0,1-10.3,7.3,29.39,29.39,0,0,1-24.1,1c-8.1-3.1-14.3-9-18.7-17.8l68.1-32c-4.9-10.3-11.7-17.6-20.5-22-12.3-6.2-25-6.3-37.8-.2q-18.9,8.85-23.4,28.5a44.76,44.76,0,0,0,3.2,29.9c4.8,10.2,12.6,17.7,23.3,22.5s22.3,4.3,34.7-1.5a44.59,44.59,0,0,0,13.8-9.6,41.79,41.79,0,0,0,8.5-13,47.09,47.09,0,0,0,3.2-17.2Zm-64.6-13.7a30.5,30.5,0,0,1,15.8-16.2,33.56,33.56,0,0,1,14.3-3.2,29,29,0,0,1,13.4,2.9,37.65,37.65,0,0,1,11.6,9.8l-56.5,26.5C113.1,168,113.6,161.4,115.8,156.1Z" transform="translate(-17.4 -8.5)" fill="#fff"/><path d="M239.2,161.9q-5.1-5.1-18-9.3c-7-2.3-11.7-4.6-14.2-6.8a11.78,11.78,0,0,1-4.3-7,10.88,10.88,0,0,1,2.4-8.7,12.46,12.46,0,0,1,8.4-4.8q8.1-1.35,18,5.7l5.7-8.2c-9-6.2-17.2-8.7-24.8-7.5a22.79,22.79,0,0,0-15.2,8.8,21.28,21.28,0,0,0-4,16.7,21.88,21.88,0,0,0,6.1,12.2c3.3,3.4,9,6.4,17,9,7.5,2.5,12.4,4.7,14.8,6.8a11.9,11.9,0,0,1,4.2,7.7,12.81,12.81,0,0,1-2.9,10.3,15.61,15.61,0,0,1-10.2,5.8c-6.1,1-12.4-1.2-18.8-6.5l-5.5,8.7a29.7,29.7,0,0,0,12.1,6.9,34.08,34.08,0,0,0,14.2.9,24.41,24.41,0,0,0,16.7-9.9,23.52,23.52,0,0,0,4.4-18.3A20.64,20.64,0,0,0,239.2,161.9Z" transform="translate(-17.4 -8.5)" fill="#fff"/><path d="M296.9,184.5c-4.4,4.1-9.4,5.7-14.9,4.7-7.2-3-11.8-8.7-13.8-17.3l-9.1-34.3,19.2-5.1-2.4-8.9-19.3,5.1L246.1,89.6l-10.5,2.8,22.5,84.1a32.16,32.16,0,0,0,8.4,15.2c6.7,6.6,14.1,9,22.2,7.4a38,38,0,0,0,13.7-6.8C301,190.4,299.2,187.8,296.9,184.5Z" transform="translate(-17.4 -8.5)" fill="#fff"/><path d="M351.6,106.8C342,98.6,330.8,95.4,318,97a41.39,41.39,0,0,0-30,18,44,44,0,0,0-7.6,31.5,43.34,43.34,0,0,0,16,28.8c9.2,7.6,20.1,10.6,32.9,9,15.4-3.3,25.3-10.9,29.8-22.6q2.4,18.3,2.4,18.9c2.7-.4,6.5-.8,11.3-1.5,0-.5-1.8-15-5.7-43.7A42.43,42.43,0,0,0,351.6,106.8ZM355,142q-8.1,34.65-38.2,32c-8.3-2.8-14.4-6.8-18.4-12a34.07,34.07,0,0,1-7.2-16.7,33.25,33.25,0,0,1,6.5-25,31.37,31.37,0,0,1,45.4-5.9A32.8,32.8,0,0,1,350,122,56.09,56.09,0,0,1,355,142Z" transform="translate(-17.4 -8.5)" fill="#fff"/><path d="M501.8,71.6c-3.9.4-8.7,3-14.2,7.8S478,91,475.5,100.1a42.28,42.28,0,0,0-2.1,12.6l1.1,10,4.3,38,10.9-1.2-3.2-28.2c-1.5-13-1.8-21.9-1-26.7a38.6,38.6,0,0,1,7.9-15.8c4.1-5,8.6-6.9,13.6-5.8l4.5-9.6A19.75,19.75,0,0,0,501.8,71.6Z" transform="translate(-17.4 -8.5)" fill="#fff"/><path d="M598.8,94.7A43.39,43.39,0,0,0,580,68.2c-10.5-7-22.1-8.8-34.6-5.7S523.7,72.8,517.7,84a45.17,45.17,0,0,0,15.6,58.9c10,6.5,21.3,8.1,33.7,5,14.9-5.1,23.8-13.8,26.9-26.1,3,12,4.6,18.1,4.7,18.5,2.6-.7,6.3-1.6,11.1-2.8C609.6,136.9,606,122.7,598.8,94.7ZM553.4,139c-8.5-1.8-15.1-5.1-19.7-9.7a33.84,33.84,0,0,1-9.1-15.8A33.14,33.14,0,0,1,528,87.9a30.92,30.92,0,0,1,19.9-15.3,30.38,30.38,0,0,1,24.5,4,36.64,36.64,0,0,1,7.8,6.7,57.48,57.48,0,0,1,7.2,19.3C584.9,126.4,573.5,138.5,553.4,139Z" transform="translate(-17.4 -8.5)" fill="#fff"/><path d="M679.5,78.4c-3.3-11-6.8-18.7-10.6-23.2a26.69,26.69,0,0,0-14.7-9,34.12,34.12,0,0,0-18.2.5,52.5,52.5,0,0,0-19.6,9.9,47.09,47.09,0,0,0-8.2,11.9c-2.3,5.4-2.6,12.8-1,22.4a56.49,56.49,0,0,0,2.7,10.8l2.7,8.5,9.1,30.4,10.4-3.1-8.8-29.4c-3.2-10.6-4.9-18-5.2-22.3-2.2-6.1-1.4-11.8,2.4-16.8a27.86,27.86,0,0,1,15.1-10.4c7.1-2.1,12.8-2.6,17-1.5s7.8,4.2,10.6,9.1c1.7,2.9,4,9,6.8,18.2l11.5,38.3,10.3-3.1Z" transform="translate(-17.4 -8.5)" fill="#fff"/><path d="M730.9,111c-5.1,3.3-10.2,3.9-15.5,1.9-6.6-4.2-10-10.7-10.4-19.5L702.3,58l19.8-1.5-.7-9.2-19.9,1.6L698.4,8.5l-10.8.8,6.7,86.8a32.12,32.12,0,0,0,5.5,16.4c5.4,7.7,12.2,11.5,20.5,11.3,4.4-.2,9.3-1.6,14.7-4.1C733.9,117.6,732.5,114.7,730.9,111Z" transform="translate(-17.4 -8.5)" fill="#fff"/><path d="M759.2,22c-4.1,1-8.7,4.4-13.8,10.1s-8.3,13.5-9.8,23.4a44.78,44.78,0,0,0-.4,13.5l12.4,49.5,11.2-2.8-7.3-29q-4.95-20.1-4.8-27.9a39.12,39.12,0,0,1,6.1-17.7c3.6-5.8,8.1-8.5,13.4-7.9l3.4-10.7A22,22,0,0,0,759.2,22Z" transform="translate(-17.4 -8.5)" fill="#fff"/><path d="M428.3,152.3h0a.37.37,0,0,1-.3.1Z" transform="translate(-17.4 -8.5)" fill="#fff"/></svg>